<svg width="43" height="43" viewBox="0 0 43 43" fill="none" xmlns="http://www.w3.org/2000/svg">
<path fill-rule="evenodd" clip-rule="evenodd" d="M37.2219 11.9325L28.4069 3.06375L27.4663 2.6875H6.71875L5.375 4.03125V18.8125H8.0625V5.375H24.1875V14.7812L25.5312 16.125H34.9375V18.8125H37.625V12.9L37.2219 11.9325V11.9325ZM26.875 13.4375V5.375L34.9375 13.4375H26.875ZM6.71875 21.5L5.375 22.8438V38.9688L6.71875 40.3125H36.2812L37.625 38.9688V22.8438L36.2812 21.5H6.71875ZM34.9375 34.9375V37.625H8.0625V24.1875H34.9375V34.9375ZM13.4375 32.25H12.5775V34.9375H10.75V26.875H13.5987C15.6144 26.875 16.6356 27.8425 16.6356 29.5625C16.6408 29.9281 16.5666 30.2904 16.4181 30.6245C16.2697 30.9585 16.0504 31.2564 15.7756 31.4975C15.1096 32.0167 14.2813 32.2832 13.4375 32.25V32.25ZM13.2763 28.3531H12.5775V30.8525H13.2763C14.2438 30.8525 14.7275 30.4225 14.7275 29.5894C14.7275 28.7563 14.2438 28.3531 13.2763 28.3531V28.3531ZM24.1875 33.8087C24.5844 33.4178 24.8948 32.9479 25.0985 32.4294C25.3022 31.9108 25.3947 31.3553 25.37 30.7988C25.37 28.1113 23.9456 26.875 21.07 26.875H18.2213V34.9375H21.07C21.6385 34.965 22.2068 34.8794 22.7419 34.6857C23.2771 34.4919 23.7684 34.1938 24.1875 33.8087V33.8087ZM20.0219 33.4594V28.3531H20.9088C21.2515 28.3313 21.5951 28.3797 21.9186 28.4952C22.2421 28.6107 22.5386 28.791 22.79 29.025C23.0178 29.2642 23.1948 29.5471 23.3102 29.8565C23.4257 30.166 23.4773 30.4957 23.4619 30.8256C23.5021 31.534 23.2606 32.2296 22.79 32.7606C22.544 32.9961 22.2529 33.1793 21.9342 33.2994C21.6155 33.4195 21.2759 33.4739 20.9356 33.4594H20.0219V33.4594ZM31.9812 31.82H29.3744V34.9375H27.5469V26.875H32.2231V28.3531H29.3744V30.3419H31.9812V31.82V31.82Z" fill="#0089C3"/>
</svg>
