<svg width="278" height="278" viewBox="0 0 278 278" fill="none" xmlns="http://www.w3.org/2000/svg">
<path d="M191.125 104.25C191.125 118.074 185.633 131.333 175.858 141.108C166.083 150.883 152.824 156.375 139 156.375C125.176 156.375 111.917 150.883 102.142 141.108C92.3667 131.333 86.875 118.074 86.875 104.25C86.875 90.4256 92.3667 77.1674 102.142 67.3921C111.917 57.6167 125.176 52.125 139 52.125C152.824 52.125 166.083 57.6167 175.858 67.3921C185.633 77.1674 191.125 90.4256 191.125 104.25Z" fill="#1AAD9B"/>
<path fill-rule="evenodd" clip-rule="evenodd" d="M0 139C0 102.135 14.6446 66.7797 40.7122 40.7122C66.7797 14.6446 102.135 0 139 0C175.865 0 211.22 14.6446 237.288 40.7122C263.355 66.7797 278 102.135 278 139C278 175.865 263.355 211.22 237.288 237.288C211.22 263.355 175.865 278 139 278C102.135 278 66.7797 263.355 40.7122 237.288C14.6446 211.22 0 175.865 0 139ZM139 17.375C116.096 17.3762 93.6576 23.8448 74.2677 36.0362C54.8779 48.2277 39.3245 65.6464 29.3979 86.2876C19.4712 106.929 15.5747 129.954 18.1568 152.712C20.739 175.47 29.6948 197.036 43.9935 214.929C56.3298 195.052 83.4869 173.75 139 173.75C194.513 173.75 221.653 195.034 234.007 214.929C248.305 197.036 257.261 175.47 259.843 152.712C262.425 129.954 258.529 106.929 248.602 86.2876C238.675 65.6464 223.122 48.2277 203.732 36.0362C184.342 23.8448 161.904 17.3762 139 17.375Z" fill="#1AAD9B"/>
</svg>
